<svg width="14" height="13" viewBox="0 0 14 13" fill="none" xmlns="http://www.w3.org/2000/svg">
<g id="Union">
<path fill-rule="evenodd" clip-rule="evenodd" d="M9.25113 5.69169C9.35281 5.16491 9.40606 4.62088 9.40606 4.06441V0.24585H0.870466V12.6C2.93743 12.6 4.83279 11.8653 6.30966 10.6428C7.78305 11.6244 10.1456 12.5574 13 12.0384C12.2138 11.7015 9.18144 9.67992 9.29375 5.63675C9.28013 5.65549 9.26591 5.6738 9.25113 5.69169Z" fill="#08041F"/>
<path d="M9.25113 5.69169L9.38604 5.80315L9.0793 5.65852L9.25113 5.69169ZM9.40606 0.24585V0.0708496H9.58106V0.24585H9.40606ZM0.870466 0.24585H0.695466V0.0708496H0.870466V0.24585ZM0.870466 12.6V12.775H0.695466V12.6H0.870466ZM6.30966 10.6428L6.19807 10.508L6.29835 10.425L6.40668 10.4972L6.30966 10.6428ZM13 12.0384L13.0689 11.8776L13.6033 12.1066L13.0313 12.2106L13 12.0384ZM9.29375 5.63675L9.15222 5.53382L9.48437 5.07712L9.46869 5.64161L9.29375 5.63675ZM9.58106 4.06441C9.58106 4.63207 9.52674 5.1872 9.42296 5.72485L9.0793 5.65852C9.17889 5.14261 9.23106 4.60969 9.23106 4.06441H9.58106ZM9.58106 0.24585V4.06441H9.23106V0.24585H9.58106ZM0.870466 0.0708496H9.40606V0.42085H0.870466V0.0708496ZM0.695466 12.6V0.24585H1.04547V12.6H0.695466ZM6.42125 10.7776C4.91416 12.0251 2.97965 12.775 0.870466 12.775V12.425C2.8952 12.425 4.75142 11.7055 6.19807 10.508L6.42125 10.7776ZM13.0313 12.2106C10.1212 12.7397 7.71314 11.7881 6.21263 10.7885L6.40668 10.4972C7.85296 11.4607 10.1701 12.3751 12.9687 11.8663L13.0313 12.2106ZM9.46869 5.64161C9.41387 7.61489 10.1255 9.0917 10.9466 10.1181C11.7712 11.1488 12.7027 11.7206 13.0689 11.8776L12.9311 12.1993C12.5112 12.0193 11.5334 11.4119 10.6733 10.3368C9.80977 9.25736 9.06132 7.70178 9.11882 5.63189L9.46869 5.64161ZM9.11622 5.58022C9.12875 5.56506 9.14075 5.5496 9.15222 5.53382L9.43528 5.73968C9.4195 5.76137 9.40308 5.78253 9.38604 5.80315L9.11622 5.58022Z" fill="#08041F"/>
</g>
</svg>
