<svg width="15" height="15" viewBox="0 0 15 15" fill="none" xmlns="http://www.w3.org/2000/svg">
<g id="Union">
<path fill-rule="evenodd" clip-rule="evenodd" d="M5.22873 6.65902C5.11403 6.06482 5.05396 5.45115 5.05396 4.82345V0.516113H14.6821V14.4516C12.3506 14.4516 10.2126 13.6229 8.54671 12.2439C6.88472 13.3511 4.21974 14.4036 1 13.8182C1.8868 13.4381 5.30733 11.1578 5.18065 6.59705C5.19602 6.61819 5.21206 6.63884 5.22873 6.65902Z" fill="#08041F"/>
<path d="M5.22873 6.65902L5.07655 6.78476L5.42255 6.62161L5.22873 6.65902ZM5.05396 0.516113V0.318713H4.85656V0.516113H5.05396ZM14.6821 0.516113H14.8795V0.318713H14.6821V0.516113ZM14.6821 14.4516V14.649H14.8795V14.4516H14.6821ZM8.54671 12.2439L8.67258 12.0918L8.55947 11.9982L8.43726 12.0796L8.54671 12.2439ZM1 13.8182L0.92224 13.6367L0.31945 13.8951L0.964688 14.0124L1 13.8182ZM5.18065 6.59705L5.34029 6.48094L4.96563 5.96578L4.98332 6.60253L5.18065 6.59705ZM4.85656 4.82345C4.85656 5.46377 4.91784 6.08997 5.03491 6.69644L5.42255 6.62161C5.31022 6.03967 5.25136 5.43852 5.25136 4.82345H4.85656ZM4.85656 0.516113V4.82345H5.25136V0.516113H4.85656ZM14.6821 0.318713H5.05396V0.713513H14.6821V0.318713ZM14.8795 14.4516V0.516113H14.4847V14.4516H14.8795ZM8.42084 12.396C10.1208 13.8031 12.303 14.649 14.6821 14.649V14.2542C12.3982 14.2542 10.3044 13.4426 8.67258 12.0918L8.42084 12.396ZM0.964688 14.0124C4.24731 14.6092 6.96358 13.5358 8.65615 12.4082L8.43726 12.0796C6.80586 13.1664 4.19218 14.1979 1.03531 13.6239L0.964688 14.0124ZM4.98332 6.60253C5.04515 8.82839 4.24248 10.4942 3.31624 11.652C2.38612 12.8147 1.3354 13.4597 0.92224 13.6367L1.07776 13.9996C1.5514 13.7966 2.65435 13.1114 3.62453 11.8987C4.59858 10.6811 5.44283 8.9264 5.37797 6.59156L4.98332 6.60253ZM5.38091 6.53329C5.36678 6.51619 5.35324 6.49874 5.34029 6.48094L5.021 6.71315C5.0388 6.73763 5.05733 6.76149 5.07655 6.78476L5.38091 6.53329Z" fill="#08041F"/>
</g>
</svg>
