<svg width="46" height="50" viewBox="0 0 46 50" fill="none" xmlns="http://www.w3.org/2000/svg">
<g id="Verified">
<path id="Vector" fill-rule="evenodd" clip-rule="evenodd" d="M15.5741 5.7429C17.7062 -1.72778 28.2936 -1.72778 30.4256 5.7429C31.1065 8.12865 33.5575 9.54378 35.9641 8.94054C43.4999 7.0516 48.7936 16.2206 43.3898 21.8023C41.6641 23.5848 41.6641 26.4151 43.3898 28.1976C48.7936 33.7793 43.4999 42.9483 35.9641 41.0593C33.5575 40.4561 31.1065 41.8712 30.4256 44.257C28.2936 51.7277 17.7062 51.7277 15.5741 44.257C14.8933 41.8712 12.4422 40.4561 10.0356 41.0593C2.49982 42.9483 -2.79389 33.7793 2.6099 28.1976C4.33559 26.4151 4.33559 23.5848 2.6099 21.8023C-2.79388 16.2206 2.49982 7.0516 10.0356 8.94054C12.4422 9.54378 14.8933 8.12865 15.5741 5.7429ZM32.5336 19.7502C33.086 19.0873 32.9965 18.1021 32.3335 17.5496C31.6706 16.9972 30.6854 17.0867 30.1329 17.7497L22.9172 26.4086C22.1447 27.3355 21.6703 27.8989 21.2795 28.2518C21.0983 28.4155 20.9908 28.4807 20.9392 28.5056C20.9288 28.5107 20.9213 28.5137 20.9166 28.5155C20.9119 28.5137 20.9044 28.5107 20.894 28.5056C20.8424 28.4807 20.7349 28.4155 20.5537 28.2518C20.1629 27.8989 19.6885 27.3355 18.916 26.4086L15.8669 22.7497C15.3145 22.0867 14.3292 21.9972 13.6663 22.5496C13.0034 23.1021 12.9138 24.0873 13.4662 24.7502L16.5819 28.489C17.2662 29.3103 17.8831 30.0508 18.4593 30.5711C19.0863 31.1373 19.876 31.6415 20.9166 31.6415C21.9572 31.6415 22.7469 31.1373 23.3739 30.5711C23.9501 30.0508 24.567 29.3104 25.2513 28.489L32.5336 19.7502Z" fill="url(#paint0_linear_186_2349)"/>
</g>
<defs>
<linearGradient id="paint0_linear_186_2349" x1="0.400635" y1="49.86" x2="50.7418" y2="6.0491" gradientUnits="userSpaceOnUse">
<stop stop-color="#207894"/>
<stop offset="1" stop-color="#2ECDFF"/>
</linearGradient>
</defs>
</svg>
