<svg width="35" height="22" viewBox="0 0 35 22" fill="none" xmlns="http://www.w3.org/2000/svg">
<g id="Group 6214">
<g id="Group 1302">
<g id="&#240;&#159;&#166;&#134; icon &#34;user&#34;">
<path id="Vector" d="M34.2188 17.5647V16.8036C34.2188 13.8613 31.8335 11.4761 28.8912 11.4761C26.9781 11.4761 25.3006 12.4845 24.361 13.9987" stroke="#5E41CA" stroke-linecap="round" stroke-linejoin="round"/>
<path id="Vector_2" d="M28.8932 11.4761C30.5745 11.4761 31.9375 10.113 31.9375 8.43176C31.9375 6.75043 30.5745 5.38745 28.8932 5.38745C27.2119 5.38745 25.8489 6.75043 25.8489 8.43176C25.8489 10.113 27.2119 11.4761 28.8932 11.4761Z" fill="#5F45BF" stroke="#5E41CA" stroke-linecap="round" stroke-linejoin="round"/>
</g>
</g>
<g id="Group 1303">
<g id="&#240;&#159;&#166;&#134; icon &#34;user&#34;_2">
<path id="Vector_3" d="M1 17.5647V16.8036C1 13.8613 3.38522 11.4761 6.32753 11.4761C8.14374 11.4761 9.74767 12.3849 10.7094 13.7726" stroke="#5E41CA" stroke-linecap="round" stroke-linejoin="round"/>
<path id="Vector_4" d="M6.32809 11.4762C8.00938 11.4762 9.37239 10.1132 9.37239 8.43188C9.37239 6.75055 8.00938 5.38757 6.32809 5.38757C4.64676 5.38757 3.28378 6.75055 3.28378 8.43188C3.28378 10.1132 4.64676 11.4762 6.32809 11.4762Z" fill="#5F45BF" stroke="#5E41CA" stroke-linecap="round" stroke-linejoin="round"/>
</g>
</g>
<g id="Group 1301">
<g id="&#240;&#159;&#166;&#134; icon &#34;user&#34;_3">
<path id="Vector_5" d="M8.60287 21.0566V19.8031C8.60287 14.9569 12.5315 11.0283 17.3776 11.0283C22.2238 11.0283 26.1524 14.9569 26.1524 19.8031V21.0566" stroke="#5E41CA" stroke-linecap="round" stroke-linejoin="round"/>
<path id="Vector_6" d="M17.3801 11.0283C20.1493 11.0283 22.3942 8.78334 22.3942 6.01415C22.3942 3.24491 20.1493 1 17.3801 1C14.6108 1 12.3659 3.24491 12.3659 6.01415C12.3659 8.78334 14.6108 11.0283 17.3801 11.0283Z" fill="#5F45BF" stroke="#5E41CA" stroke-linecap="round" stroke-linejoin="round"/>
</g>
</g>
</g>
</svg>
