<svg width="24" height="25" viewBox="0 0 24 25" fill="none" xmlns="http://www.w3.org/2000/svg">
<g id="vuesax/linear/command">
<g id="command">
<path id="Vector" d="M16 8.5H8V16.5H16V8.5Z" stroke="white" stroke-width="1.5" stroke-linecap="round" stroke-linejoin="round"/>
<path id="Vector_2" d="M5 22.5C6.65 22.5 8 21.15 8 19.5V16.5H5C3.35 16.5 2 17.85 2 19.5C2 21.15 3.35 22.5 5 22.5Z" stroke="white" stroke-width="1.5" stroke-linecap="round" stroke-linejoin="round"/>
<path id="Vector_3" d="M5 8.5H8V5.5C8 3.85 6.65 2.5 5 2.5C3.35 2.5 2 3.85 2 5.5C2 7.15 3.35 8.5 5 8.5Z" stroke="white" stroke-width="1.5" stroke-linecap="round" stroke-linejoin="round"/>
<path id="Vector_4" d="M16 8.5H19C20.65 8.5 22 7.15 22 5.5C22 3.85 20.65 2.5 19 2.5C17.35 2.5 16 3.85 16 5.5V8.5Z" stroke="white" stroke-width="1.5" stroke-linecap="round" stroke-linejoin="round"/>
<path id="Vector_5" d="M19 22.5C20.65 22.5 22 21.15 22 19.5C22 17.85 20.65 16.5 19 16.5H16V19.5C16 21.15 17.35 22.5 19 22.5Z" stroke="white" stroke-width="1.5" stroke-linecap="round" stroke-linejoin="round"/>
</g>
</g>
</svg>
